<?xml version="1.0" standalone="no"?>
<!DOCTYPE svg PUBLIC "-//W3C//DTD SVG 20010904//EN"
 "http://www.w3.org/TR/2001/REC-SVG-20010904/DTD/svg10.dtd">
<svg version="1.0" xmlns="http://www.w3.org/2000/svg"
 width="400.000000pt" height="400.000000pt" viewBox="0 0 400.000000 400.000000"
 preserveAspectRatio="xMidYMid meet">
<metadata>
Created by potrace 1.14, written by Peter Selinger 2001-2017
</metadata>
<g transform="translate(0.000000,400.000000) scale(0.100000,-0.100000)"
fill="#000000" stroke="none">
<path d="M1164 3206 c-3 -8 4 -35 15 -61 11 -25 23 -62 27 -82 4 -20 20 -73
36 -117 17 -45 34 -99 38 -121 4 -22 22 -83 39 -135 32 -94 32 -98 34 -307 1
-116 5 -214 8 -218 9 -9 236 -12 244 -3 7 7 8 37 6 278 -1 146 16 237 51 276
12 13 18 34 17 55 -1 19 28 123 65 234 36 110 66 203 66 208 0 4 -49 7 -108 7
l-108 0 -36 -117 c-20 -65 -42 -138 -49 -163 l-13 -45 -6 40 c-3 22 -9 46 -13
52 -5 7 -19 57 -33 110 -14 54 -30 104 -36 111 -16 19 -237 17 -244 -2z"/>
<path d="M1850 3213 c0 -5 0 -239 0 -522 0 -358 4 -519 11 -528 17 -20 235
-18 243 2 7 19 -3 1035 -10 1047 -6 10 -244 11 -244 1z"/>
<path d="M2580 3210 l-55 -5 0 -187 c0 -103 -1 -185 -3 -184 -1 2 -9 39 -17
82 -8 43 -28 126 -43 184 l-28 105 -136 3 c-121 2 -137 1 -140 -14 -2 -9 0
-143 4 -298 3 -155 8 -383 11 -508 3 -124 8 -231 11 -237 11 -16 171 -14 185
2 6 8 8 32 5 58 -3 24 -5 53 -5 64 4 63 1 197 -4 244 -9 73 15 65 30 -10 6
-30 16 -63 22 -75 7 -11 19 -57 28 -103 10 -46 25 -106 35 -135 l18 -51 116
-2 c63 0 119 -4 124 -7 5 -3 11 -4 13 -2 2 3 1 127 -2 278 -4 150 -8 389 -9
531 -2 174 -7 260 -14 265 -13 8 -69 9 -146 2z"/>
<path d="M862 2053 l-54 -4 5 -47 c7 -61 30 -157 49 -202 25 -58 40 -104 43
-130 2 -14 19 -76 40 -138 l37 -114 -1 -190 c0 -105 2 -202 5 -215 6 -23 8
-23 130 -23 122 0 124 0 125 23 1 26 1 66 -1 248 -1 148 15 242 51 291 10 15
19 42 18 60 -1 31 20 101 97 322 24 70 31 102 24 111 -10 12 -169 18 -197 8
-13 -5 -72 -183 -94 -283 l-13 -55 -9 45 c-5 25 -13 54 -17 65 -5 11 -11 31
-13 45 -11 62 -40 156 -50 167 -14 14 -101 22 -175 16z"/>
<path d="M1520 2018 c-6 -18 -14 -53 -16 -78 -2 -25 -8 -74 -13 -110 -5 -36
-9 -74 -9 -85 -1 -11 -8 -63 -16 -115 -16 -104 -29 -231 -27 -269 0 -13 -3
-29 -8 -35 -15 -18 -56 -325 -45 -336 13 -13 202 -16 215 -3 6 6 15 44 19 84
5 41 14 98 20 128 5 29 10 55 10 57 0 2 19 4 43 4 l43 0 2 -47 c3 -58 32 -215
42 -226 9 -10 232 -13 247 -4 6 4 5 28 -5 69 -16 74 -28 159 -67 483 -2 17 -8
68 -14 115 -7 47 -16 122 -21 166 -6 45 -17 95 -25 110 -8 16 -15 43 -15 59
-1 57 -4 58 -183 63 l-165 3 -12 -33z m193 -565 c4 -6 -3 -13 -14 -16 -22 -6
-22 -2 -8 168 1 11 5 -16 9 -61 4 -45 10 -86 13 -91z"/>
<path d="M2057 2038 c-7 -4 -8 -115 -3 -365 12 -606 16 -687 29 -695 17 -11
149 -10 166 1 17 11 24 87 10 113 -5 10 -5 19 0 23 10 5 7 129 -4 232 -8 65
10 80 24 21 6 -24 19 -70 30 -103 11 -33 23 -78 26 -100 4 -22 16 -73 28 -112
20 -68 24 -73 54 -79 44 -8 203 2 215 14 9 9 11 311 3 552 -2 58 -4 194 -5
302 -1 140 -5 198 -14 201 -6 3 -50 5 -97 6 -66 1 -89 -2 -99 -14 -9 -11 -11
-60 -7 -197 5 -185 2 -192 -26 -48 -20 98 -57 232 -69 245 -10 11 -243 14
-261 3z"/>
<path d="M2758 2014 c-30 -23 -53 -52 -67 -84 -21 -48 -21 -59 -17 -442 3
-217 9 -405 14 -418 14 -36 60 -76 116 -101 39 -17 59 -20 99 -15 51 7 99 27
128 53 15 12 17 11 23 -12 6 -24 10 -25 71 -25 l65 0 -2 273 -3 272 -130 0
-130 0 -2 188 c-2 174 -1 188 15 185 15 -3 17 -18 19 -117 2 -63 6 -117 9
-120 7 -8 160 -11 197 -4 l27 5 -1 126 c0 78 -6 139 -13 157 -8 17 -36 50 -64
73 l-50 42 -129 0 -130 0 -45 -36z m206 -711 c0 -13 -1 -52 -2 -88 -2 -50 -5
-65 -17 -65 -9 0 -15 10 -16 23 -7 158 -7 158 15 155 14 -2 21 -10 20 -25z"/>
</g>
</svg>
